<svg xmlns="http://www.w3.org/2000/svg" viewBox="0 0 500 160">
  <path fill="#0000" d="M0 0h500v160H0z"/>
  <path fill="#fff" d="M126 102.81h-6.75v-2.07a7.32 7.32 0 0 1-1.52 1.15 12.71 12.71 0 0 1-1.83.85 12.19 12.19 0 0 1-2 .53 9.94 9.94 0 0 1-1.9.19 12.27 12.27 0 0 1-4-.65 9.34 9.34 0 0 1-3.35-2 9.74 9.74 0 0 1-2.32-3.51 13.64 13.64 0 0 1-.86-5.11V75.72h6.74v16.12a6.67 6.67 0 0 0 .45 2.55 5.44 5.44 0 0 0 1.17 1.83 4.57 4.57 0 0 0 1.69 1.08 5.83 5.83 0 0 0 2 .35 8 8 0 0 0 5.67-2.25V75.72H126Zm31.64-13.5a15.28 15.28 0 0 1-1 5.44 14.19 14.19 0 0 1-2.7 4.52 13 13 0 0 1-4.13 3.09 12 12 0 0 1-5.26 1.15 11.28 11.28 0 0 1-3.34-.49 9.18 9.18 0 0 1-2.91-1.57v13.12h-6.8v-38.9h6.8v1.41a9.07 9.07 0 0 1 2.79-1.5 10.15 10.15 0 0 1 3.4-.56 11.17 11.17 0 0 1 4.83 1.1 13.82 13.82 0 0 1 4.17 3 15.05 15.05 0 0 1 2.93 4.52 14.45 14.45 0 0 1 1.22 5.67Zm-6.89 0a10 10 0 0 0-.57-3.47 7.77 7.77 0 0 0-1.57-2.65 7 7 0 0 0-2.4-1.69 7.86 7.86 0 0 0-3.08-.58 8.38 8.38 0 0 0-2.47.44 7.31 7.31 0 0 0-2.33 1.2v13a7.16 7.16 0 0 0 4.94 2 7.3 7.3 0 0 0 3-.61 6.73 6.73 0 0 0 2.37-1.71 8 8 0 0 0 1.55-2.62 9.38 9.38 0 0 0 .56-3.26Zm39.08-.1a12.65 12.65 0 0 1-.07 1.36c0 .47-.1 1-.16 1.46H168a9.39 9.39 0 0 0 1 2.22 7.11 7.11 0 0 0 1.67 1.83 7.7 7.7 0 0 0 2.22 1.22 8 8 0 0 0 2.74.44 11.18 11.18 0 0 0 3.66-.63 9 9 0 0 0 3.05-1.71l4.26 4.27a19 19 0 0 1-5.51 3 18.36 18.36 0 0 1-5.69.87 14.38 14.38 0 0 1-5.69-1.13 14.58 14.58 0 0 1-4.6-3 14.36 14.36 0 0 1-3.11-4.59 14.09 14.09 0 0 1 3.1-15.63 14.91 14.91 0 0 1 4.59-3 14.1 14.1 0 0 1 5.66-1.19 14.65 14.65 0 0 1 5.49 1 15 15 0 0 1 4.64 3 13.69 13.69 0 0 1 4.35 10.21Zm-7.07-2.62a8.13 8.13 0 0 0-2.84-4.15 7.41 7.41 0 0 0-4.61-1.57 7.24 7.24 0 0 0-4.55 1.57 8.2 8.2 0 0 0-2.76 4.15Zm30.74-8.06-3.61 5.72a12.34 12.34 0 0 0-2.18-1.9 4.19 4.19 0 0 0-2.41-.82 4 4 0 0 0-1.43.3 4.15 4.15 0 0 0-1.45 1 5.67 5.67 0 0 0-1.15 1.85 7.6 7.6 0 0 0-.47 2.84v15.28h-6.75V75.72h6.75v2.9a9.86 9.86 0 0 1 2.69-2.62 6.1 6.1 0 0 1 3.31-1 7 7 0 0 1 3.49 1 13.54 13.54 0 0 1 3.21 2.53Zm29.85 24.76-4.68-12.22h-18.56l-4.73 12.22h-2.29l16.27-42.08 16.33 42.08Zm-14-36.14L221 88.73h16.7Zm38.27 33.75a10 10 0 0 1-7.65 2.92c-3.23 0-5.74-.95-7.51-2.86s-2.66-4.56-2.66-8V75.84h2.73V93a9.34 9.34 0 0 0 1.73 6c1.19 1.42 3.1 2.12 5.71 2.12q7.65 0 7.65-8.17V75.84h2.65V93c0 3.36-.88 6-2.65 7.9Zm15.15-22.33v24.72H280V78.57h-3.72v-2.73H280v-12h2.73v12h6.38v2.73Zm32.03 24.79V86.81q0-8.72-8.11-8.71a8.67 8.67 0 0 0-5.71 2 6.51 6.51 0 0 0-2.46 5.32v17.88h-2.73V54.11h2.73V79.5q2.46-4.05 8.17-4.06 10.83 0 10.84 11.1v16.82ZM326.1 89q0 5.58 3 8.84a11.17 11.17 0 0 0 8.57 3.32 13.18 13.18 0 0 0 5.06-.93 11.43 11.43 0 0 0 5.11-4.85l2.46 1.13a13.23 13.23 0 0 1-8 6.65 15.29 15.29 0 0 1-4.66.66 13.86 13.86 0 0 1-14.2-14.22 13.75 13.75 0 0 1 14.22-14.22 14.11 14.11 0 0 1 10.11 3.78 12.87 12.87 0 0 1 4.05 9.84Zm18.74-8.71a12 12 0 0 0-7.18-2.29q-8.51 0-11.16 8.38h22.26a9.26 9.26 0 0 0-3.92-6.09Zm31.77 23V86.87q0-8.7-7.84-8.7a7.38 7.38 0 0 0-5.85 2.26 8.82 8.82 0 0 0-2.06 6.18v16.68h-2.73V75.84h2.73v3.32q1.86-3.64 7.91-3.65 5.12 0 7.84 2.92t2.73 8.18v16.68Zm15.62-24.72v24.72h-2.73V78.57h-3.72v-2.73h3.72v-12h2.73v12h6.38v2.73Zm14.35-7.65a2.61 2.61 0 0 1-1.52-.59 2.4 2.4 0 0 1-.67-1.6q0-1.8 2.19-2.19c1.11 0 1.84.73 2.2 2.19a1.94 1.94 0 0 1-2.2 2.19Zm-1.39 32.37V75.84h2.72v27.45Zm24.72.53a14.22 14.22 0 1 1 0-28.44 13.43 13.43 0 0 1 8.38 2.39V81l-1.73-1.13-1.86-1a14.74 14.74 0 0 0-4.79-.87 11.57 11.57 0 1 0 0 23.13 12.22 12.22 0 0 0 8.38-3.13v3.39a14.89 14.89 0 0 1-8.38 2.43ZM85.5 56.34l12.14 12.14a4.74 4.74 0 0 1 1.63 3 3.33 3.33 0 0 1-1.06 2.61 3.42 3.42 0 0 1-2.66 1.11 4.78 4.78 0 0 1-3-1.63L80.11 61.18a15.66 15.66 0 0 0-4-3.07 5.72 5.72 0 0 0-3.88-.52 8.68 8.68 0 0 0-4.16 2.59q-3 3-2.64 5.83c.23 1.88 1.43 3.91 3.59 6.07L81.53 84.6a4.8 4.8 0 0 1 1.64 3 3.34 3.34 0 0 1-1.08 2.61 3.43 3.43 0 0 1-2.63 1.1 4.75 4.75 0 0 1-3-1.62L64.27 77.57a25.57 25.57 0 0 1-4.36-5.52 10.73 10.73 0 0 1-1.3-5.66A12 12 0 0 1 60 61.33a20.06 20.06 0 0 1 3.68-4.85 25.12 25.12 0 0 1 5.64-4.39 11.41 11.41 0 0 1 5.38-1.48A11.16 11.16 0 0 1 80 52a24.19 24.19 0 0 1 5.5 4.34Z"/>
  <path fill="#fff" d="M68.35 97.94 56.21 85.8a4.78 4.78 0 0 1-1.63-3 3.33 3.33 0 0 1 1.06-2.61 3.42 3.42 0 0 1 2.66-1.11 4.78 4.78 0 0 1 3 1.63L73.74 93.1a15.83 15.83 0 0 0 4 3.06 5.79 5.79 0 0 0 3.88.53 8.71 8.71 0 0 0 4.16-2.6q3-3 2.64-5.82c-.23-1.89-1.43-3.92-3.59-6.07L72.32 69.68a4.85 4.85 0 0 1-1.64-3 3.34 3.34 0 0 1 1.08-2.61 3.44 3.44 0 0 1 2.63-1.11 4.75 4.75 0 0 1 3 1.62L89.58 76.7a25.57 25.57 0 0 1 4.36 5.52 10.75 10.75 0 0 1 1.3 5.66 11.92 11.92 0 0 1-1.34 5.06 20.1 20.1 0 0 1-3.68 4.86 25 25 0 0 1-5.64 4.38 11.3 11.3 0 0 1-5.38 1.48 11 11 0 0 1-5.32-1.43 24.4 24.4 0 0 1-5.53-4.29Z"/>
</svg>